Coordinates
version=1
nRows=16
nColumns=36
inDegrees=yes

Units are S.I. units (second, meters, Newtons, ...)
If the header above contains a line with 'inDegrees', this indicates whether rotational values are in degrees (yes) or radians (no).

endheader
time	pelvis_tilt	pelvis_list	pelvis_rotation	pelvis_tx	pelvis_ty	pelvis_tz	hip_flexion_r	hip_adduction_r	hip_rotation_r	knee_angle_r	knee_angle_r_beta	ankle_angle_r	subtalar_angle_r	mtp_angle_r	hip_flexion_l	hip_adduction_l	hip_rotation_l	knee_angle_l	knee_angle_l_beta	ankle_angle_l	subtalar_angle_l	mtp_angle_l	lumbar_extension	lumbar_bending	lumbar_rotation	arm_flex_r	arm_add_r	arm_rot_r	elbow_flex_r	pro_sup_r	arm_flex_l	arm_add_l	arm_rot_l	elbow_flex_l	pro_sup_l
      0.00000000	      0.96191341	     -3.86221871	     -1.14090516	      0.78141788	      0.94613629	      0.75113309	     14.22971180	      6.52465594	      3.90984233	     19.71875579	      0.34415721	      5.53141918	    -11.71814701	     -7.07692105	      1.83822566	     -6.98815257	      0.67555495	     54.63273319	      0.95352107	     -4.11850578	    -18.08966720	     -7.07692105	    -20.21679107	      6.80950555	      0.24379306	      3.67002114	    -13.38777362	     -5.37614544	     27.52342337	     86.42554721	     15.51331876	    -10.75993561	      8.95615568	     18.85757117	     82.87591506
      0.01666670	     -0.19707046	     -2.65287747	     -1.78957037	      0.78151856	      0.94480770	      0.75363484	     14.85056816	      5.60545324	      6.17573652	     21.20081646	      0.37002405	      8.49575090	    -10.05258578	     -7.12233263	      6.06869376	     -6.11816366	     -0.53967542	     57.54531935	      1.00435529	     -5.96515739	    -18.85635006	     -7.12233263	    -20.20080381	      5.47060265	      0.57121173	      4.17788109	    -13.48883346	     -5.32328390	     28.09825017	     85.12293805	     14.73739115	    -10.69388446	      7.82633640	     19.06459225	     81.63135142
      0.03333330	      0.18400824	     -1.89416157	     -2.11111934	      0.77960722	      0.94990215	      0.75506467	     13.48324446	      4.89881735	      7.64815603	     21.62278812	      0.37738885	     10.19509759	     -8.85785683	     -7.22680062	      8.42287513	     -5.22015029	     -0.02523953	     59.86212624	      1.04479120	     -4.32900629	    -16.63226495	     -7.22680062	    -21.02733935	      4.75055732	      0.14547585	      6.43587747	    -13.69926946	     -2.72955420	     27.00279389	     82.39398187	     13.96708906	    -10.73607998	      4.86413803	     19.39151059	     80.12113581
      0.05000000	     -0.14740704	     -1.26188637	     -2.24379515	      0.77837827	      0.95778014	      0.75575812	     12.27241695	      4.19447621	      8.37199077	     20.66416181	      0.36065766	     11.58464414	     -7.04166330	     -7.24104716	     11.08910019	     -4.55874575	     -0.07275335	     60.19802714	      1.05065378	     -3.38562578	    -15.90932437	     -7.24104716	    -21.56115016	      4.28275657	      0.56636332	      7.56607943	    -13.98885372	     -2.35867048	     26.96704509	     80.70194072	     13.50200058	    -10.60257604	      4.08264803	     20.20502559	     78.65783883
      0.06666670	     -0.46784946	     -0.50272203	     -2.58624406	      0.77682524	      0.96519914	      0.75667819	     11.02060758	      3.26353002	      8.74999460	     19.56217053	      0.34142428	     12.10463114	     -5.28842196	     -7.25459346	     13.42758094	     -3.76028338	     -0.50502836	     59.17567797	      1.03281042	     -2.58574048	    -15.53745992	     -7.25459346	    -21.96044196	      3.51607886	      1.20233376	      8.66591182	    -14.25025157	     -1.41999672	     26.61705067	     79.34956039	     12.93640514	    -10.39976365	      3.46768534	     20.69840311	     77.36976566
      0.08333330	     -0.74916752	      0.22666696	     -2.92971896	      0.77562202	      0.96733710	      0.75722411	      9.88580734	      2.31081794	      8.81446056	     18.75356449	      0.32731145	     12.09642779	     -4.11764967	     -7.27376337	     15.53080944	     -3.10537201	     -1.28582029	     57.39909719	      1.00180323	     -1.51792660	    -15.09225299	     -7.27376337	    -22.44539277	      2.66999336	      2.25892671	      9.41082099	    -14.57009507	     -0.84497658	     26.74605480	     77.84606229	     12.30908354	    -10.11982818	      3.32404126	     20.94730664	     75.91896979
      0.10000000	     -1.06572560	      0.86360404	     -3.12313037	      0.77462445	      0.96596289	      0.75692685	      8.98315938	      1.42514485	      8.64973323	     18.35390963	      0.32033615	     12.09686935	     -3.32985266	     -7.28611250	     17.51627984	     -2.66840384	     -2.37344105	     55.25169273	      0.96432396	     -0.29002206	    -14.66852395	     -7.28611250	    -22.75613566	      1.93455538	      3.34039568	     10.22418190	    -15.03679526	     -0.09064943	     26.71611239	     76.66460304	     11.64604093	     -9.77108364	      3.39163926	     20.68457613	     74.77357540
      0.11666670	     -1.64401888	      1.34332695	     -3.06646906	      0.77307045	      0.96496945	      0.75589366	      8.42607443	      0.67403524	      7.96413551	     18.16188709	      0.31698473	     12.56273252	     -1.74560639	     -7.30661743	     19.68843073	     -2.47330475	     -3.53386262	     52.87330927	      0.92281333	      1.50293675	    -13.43600160	     -7.30661743	    -22.44975520	      1.45525864	      4.19360736	     11.34771837	    -15.79765559	      2.29658726	     26.27348217	     75.85960964	     11.09575626	     -9.50787755	      4.54059493	     19.49720242	     74.05298524
      0.13333330	     -1.73770065	      1.78320587	     -2.91319322	      0.77094566	      0.96421545	      0.75525394	      7.25240844	      0.04544739	      7.65366456	     17.82159700	      0.31104555	     12.91680002	     -0.79959008	     -7.32929937	     21.20982076	     -2.27594822	     -4.50311319	     49.99819627	      0.87263314	      2.69665336	    -12.70849542	     -7.32929937	    -22.78757748	      0.98966168	      5.09948319	     12.31802060	    -16.65728940	      4.00701340	     27.08014276	     74.96239302	     10.62380083	     -9.29024051	      5.38436455	     19.33286179	     73.32733689
      0.15000000	     -1.64579152	      2.09331182	     -2.63262046	      0.76836419	      0.96299975	      0.75572900	      5.79235868	     -0.40015849	      7.37368565	     17.28055946	      0.30160266	     13.37818008	      0.11918497	     -7.34742772	     22.49354565	     -2.24788013	     -5.11009917	     46.77882715	      0.81644455	      3.53243751	    -11.95868524	     -7.34742772	    -23.29860315	      0.63478258	      5.93784479	     13.15473880	    -17.38686845	      4.67844989	     28.59219561	     73.90502983	     10.14928583	     -9.05595259	      5.42080696	     19.74146844	     72.34986054
      0.16666670	     -1.56860500	      2.27176973	     -2.30503363	      0.76511524	      0.96202736	      0.75666702	      4.42181699	     -0.68393760	      7.15583025	     16.72474187	      0.29190181	     13.96922506	      0.79873196	     -7.34987257	     23.70505459	     -2.40526609	     -5.40652302	     43.17723826	      0.75358497	      4.13816936	    -11.05998064	     -7.34987257	    -23.69608922	      0.37477261	      6.70623200	     13.97922010	    -18.04323854	      5.36838734	     29.97781586	     74.19112011	      9.75467960	     -8.86594641	      5.53184617	     19.83386667	     72.53612000
      0.18333330	     -1.43347816	      2.30915030	     -1.88581509	      0.76141128	      0.96139042	      0.75640159	      3.09888903	     -0.86398394	      6.81694734	     16.18642772	      0.28250646	     14.64331649	      1.27256808	     -7.35190089	     24.78858804	     -2.66678247	     -5.44906691	     39.25721080	      0.68516758	      4.40354475	    -10.06716564	     -7.35190089	    -24.27095224	      0.29551282	      7.30337625	     14.69178193	    -18.76886842	      6.14558886	     31.65464970	     74.54265204	      9.33484037	     -8.70220306	      5.30839674	     19.92229323	     72.70590713
      0.20000000	     -1.51265341	      2.36454808	     -1.48957832	      0.75822654	      0.95891254	      0.75483460	      2.13178374	     -1.07163620	      6.54461314	     15.85392174	      0.27670313	     15.49389652	      1.45500456	     -7.35233660	     26.11002740	     -2.84234453	     -5.41431300	     35.17866448	      0.61398352	      4.37569810	     -9.13136815	     -7.35233660	    -24.63405525	      0.25607857	      7.68479955	     15.46711268	    -19.31062931	      6.66852495	     32.74432979	     74.83070501	      8.82271714	     -8.47670653	      4.88594179	     19.67735149	     72.81525226
      0.21666670	     -1.64916269	      2.48342239	     -1.06035862	      0.75633407	      0.95487528	      0.75300424	      1.02371626	     -1.30069791	      6.25105701	     15.36152726	      0.26810923	     16.64162001	      1.58700478	     -7.35008569	     27.47265156	     -2.84156445	     -5.27537501	     31.00245791	      0.54109497	      4.14679445	     -8.19597524	     -7.35008569	    -24.58493334	      0.10178263	      8.00038561	     16.22134985	    -19.76574827	      7.12022651	     33.35839806	     75.17039344	      8.44534509	     -8.46823333	      4.44206526	     19.17160028	     72.96918897
      0.23333330	     -1.60111940	      2.52829446	     -0.76838963	      0.75573106	      0.95190302	      0.75114438	     -0.53669985	     -1.39307043	      6.11660355	     14.72261035	      0.25695803	     17.59223345	      2.24701627	     -7.34878382	     28.52220506	     -2.83988820	     -5.05001354	     26.87992781	      0.46914324	      4.31418793	     -7.41805796	     -7.34878382	    -24.81600106	      0.03110263	      8.23563085	     17.14300311	    -20.13495142	      7.77796857	     34.03092799	     75.36451612	      7.85375732	     -8.33299991	      3.45416954	     19.28008409	     72.89196606
      0.25000000	     -1.87371004	      2.75473165	     -0.42986380	      0.75699577	      0.95034659	      0.74906879	     -1.99695527	     -1.62992601	      6.02163854	     14.03572665	      0.24496964	     17.84807603	      3.22940943	     -7.34272577	     29.60873936	     -2.54489835	     -4.86029892	     22.74001454	      0.39688813	      4.82165765	     -6.06396502	     -7.34272577	    -24.46291141	     -0.21753559	      8.27922935	     18.17819421	    -20.41722573	      9.09859771	     34.45065364	     75.85296561	      7.24664258	     -8.21738280	      2.21020567	     18.95030819	     73.04585555
